<?xml version="1.0" encoding="utf-8"?>
<!-- Generator: Adobe Illustrator 16.0.3, SVG Export Plug-In . SVG Version: 6.00 Build 0)  -->
<svg version="1.1"
	xmlns="http://www.w3.org/2000/svg"
	xmlns:xlink="http://www.w3.org/1999/xlink" x="0px" y="0px" viewBox="0 0 24 24" width="24px" height="24px" enable-background="new 0 0 24 24"  xml:space="preserve">
	<g>
		<path d="M16.86,10.325H7.138c-1.628,0-2.949,1.32-2.949,2.949c0,1.63,1.321,2.951,2.949,2.951h9.722
		c1.63,0,2.952-1.321,2.952-2.951C19.813,11.646,18.49,10.325,16.86,10.325z M8.517,14.526c-0.691,0-1.251-0.56-1.251-1.252
		c0-0.69,0.56-1.25,1.251-1.25c0.69,0,1.25,0.56,1.25,1.25C9.767,13.967,9.207,14.526,8.517,14.526z M15.483,14.526
		c-0.69,0-1.25-0.56-1.25-1.252c0-0.69,0.56-1.25,1.25-1.25c0.689,0,1.249,0.56,1.249,1.25
		C16.732,13.967,16.173,14.526,15.483,14.526z"/>
		<path d="M12,1C5.924,1,1,5.924,1,12c0,6.075,4.924,11,11,11c6.075,0,11-4.925,11-11C23,5.924,18.075,1,12,1z M18.068,16.827
		c-1.167,2.152-3.447,3.614-6.068,3.614s-4.901-1.462-6.069-3.614l0,0c-1.479-0.504-2.542-1.904-2.542-3.553
		c0-1.792,1.257-3.29,2.938-3.661C7.572,7.817,9.648,6.641,12,6.641v-1.92c-0.441-0.081-0.775-0.468-0.775-0.933
		c0-0.525,0.425-0.951,0.95-0.951s0.949,0.426,0.949,0.951c0,0.464-0.333,0.852-0.773,0.933V6.65l0,0
		c2.206,0.11,4.14,1.257,5.323,2.964l0,0c1.68,0.371,2.938,1.87,2.938,3.661C20.611,14.924,19.547,16.323,18.068,16.827z"/>
		<polygon points="11.712,10.084 12.883,8.825 12.142,8.158 12.333,7.041 11.091,8.158 12.112,8.883 	"/>
		<path d="M12.221,17.808c-1.808,0-2.396-0.793-2.396-0.793l-0.455,0.397c0,0,0.7,0.943,2.851,0.943c2.149,0,2.85-0.943,2.85-0.943
		l-0.454-0.397C14.617,17.015,14.027,17.808,12.221,17.808z"/>
	</g>
</svg>
